<svg width="74" height="74" viewBox="0 0 74 74" fill="none" xmlns="http://www.w3.org/2000/svg">
<path d="M14.5586 45.2344C13.2617 45.2344 12.1562 45 11.2422 44.5312C10.3281 44.0547 9.63281 43.3203 9.15625 42.3281C8.67969 41.3359 8.44141 40.0664 8.44141 38.5195C8.44141 36.918 8.71094 35.6133 9.25 34.6055C9.79688 33.5898 10.5508 32.8438 11.5117 32.3672C12.4805 31.8906 13.6016 31.6523 14.875 31.6523C15.7812 31.6523 16.5625 31.7422 17.2188 31.9219C17.8828 32.0938 18.4609 32.3008 18.9531 32.543L17.8984 35.3086C17.3359 35.082 16.8125 34.8984 16.3281 34.7578C15.8438 34.6094 15.3594 34.5352 14.875 34.5352C14.25 34.5352 13.7305 34.6836 13.3164 34.9805C12.9023 35.2695 12.5938 35.707 12.3906 36.293C12.1875 36.8789 12.0859 37.6133 12.0859 38.4961C12.0859 39.3633 12.1953 40.082 12.4141 40.6523C12.6328 41.2227 12.9492 41.6484 13.3633 41.9297C13.7773 42.2031 14.2812 42.3398 14.875 42.3398C15.6172 42.3398 16.2773 42.2422 16.8555 42.0469C17.4336 41.8438 17.9961 41.5625 18.543 41.2031V44.2617C17.9961 44.6055 17.4219 44.8516 16.8203 45C16.2266 45.1562 15.4727 45.2344 14.5586 45.2344ZM25.1641 45H21.5898V26.7656H25.1641V45ZM34.3281 31.6523C35.5391 31.6523 36.582 31.8867 37.457 32.3555C38.332 32.8164 39.0078 33.4883 39.4844 34.3711C39.9609 35.2539 40.1992 36.332 40.1992 37.6055V39.3398H31.75C31.7891 40.3477 32.0898 41.1406 32.6523 41.7188C33.2227 42.2891 34.0117 42.5742 35.0195 42.5742C35.8555 42.5742 36.6211 42.4883 37.3164 42.3164C38.0117 42.1445 38.7266 41.8867 39.4609 41.543V44.3086C38.8125 44.6289 38.1328 44.8633 37.4219 45.0117C36.7188 45.1602 35.8633 45.2344 34.8555 45.2344C33.543 45.2344 32.3789 44.9922 31.3633 44.5078C30.3555 44.0234 29.5625 43.2852 28.9844 42.293C28.4141 41.3008 28.1289 40.0508 28.1289 38.543C28.1289 37.0117 28.3867 35.7383 28.9023 34.7227C29.4258 33.6992 30.1523 32.9336 31.082 32.4258C32.0117 31.9102 33.0938 31.6523 34.3281 31.6523ZM34.3516 34.1953C33.6562 34.1953 33.0781 34.418 32.6172 34.8633C32.1641 35.3086 31.9023 36.0078 31.832 36.9609H36.8477C36.8398 36.4297 36.7422 35.957 36.5547 35.543C36.375 35.1289 36.1016 34.8008 35.7344 34.5586C35.375 34.3164 34.9141 34.1953 34.3516 34.1953ZM48.4727 31.6289C50.2305 31.6289 51.5781 32.0117 52.5156 32.7773C53.4531 33.543 53.9219 34.707 53.9219 36.2695V45H51.4258L50.7344 43.2188H50.6406C50.2656 43.6875 49.8828 44.0703 49.4922 44.3672C49.1016 44.6641 48.6523 44.8828 48.1445 45.0234C47.6367 45.1641 47.0195 45.2344 46.293 45.2344C45.5195 45.2344 44.8242 45.0859 44.207 44.7891C43.5977 44.4922 43.1172 44.0391 42.7656 43.4297C42.4141 42.8125 42.2383 42.0312 42.2383 41.0859C42.2383 39.6953 42.7266 38.6719 43.7031 38.0156C44.6797 37.3516 46.1445 36.9844 48.0977 36.9141L50.3711 36.8438V36.2695C50.3711 35.582 50.1914 35.0781 49.832 34.7578C49.4727 34.4375 48.9727 34.2773 48.332 34.2773C47.6992 34.2773 47.0781 34.3672 46.4688 34.5469C45.8594 34.7266 45.25 34.9531 44.6406 35.2266L43.457 32.8125C44.1523 32.4453 44.9297 32.1562 45.7891 31.9453C46.6562 31.7344 47.5508 31.6289 48.4727 31.6289ZM50.3711 38.9297L48.9883 38.9766C47.832 39.0078 47.0273 39.2148 46.5742 39.5977C46.1289 39.9805 45.9062 40.4844 45.9062 41.1094C45.9062 41.6562 46.0664 42.0469 46.3867 42.2812C46.707 42.5078 47.125 42.6211 47.6406 42.6211C48.4062 42.6211 49.0508 42.3945 49.5742 41.9414C50.1055 41.4883 50.3711 40.8438 50.3711 40.0078V38.9297ZM64.9258 31.6523C65.1055 31.6523 65.3125 31.6641 65.5469 31.6875C65.7891 31.7031 65.9844 31.7266 66.1328 31.7578L65.8633 35.1094C65.7461 35.0703 65.5781 35.043 65.3594 35.0273C65.1484 35.0039 64.9648 34.9922 64.8086 34.9922C64.3477 34.9922 63.8984 35.0508 63.4609 35.168C63.0312 35.2852 62.6445 35.4766 62.3008 35.7422C61.957 36 61.6836 36.3438 61.4805 36.7734C61.2852 37.1953 61.1875 37.7148 61.1875 38.332V45H57.6133V31.8984H60.3203L60.8477 34.1016H61.0234C61.2812 33.6562 61.6016 33.25 61.9844 32.8828C62.375 32.5078 62.8164 32.2109 63.3086 31.9922C63.8086 31.7656 64.3477 31.6523 64.9258 31.6523Z" fill="#A8A8A8"/>
<rect x="1" y="1" width="72" height="72" rx="11" stroke="#A8A8A8" stroke-width="2"/>
</svg>
