<svg width="74" height="74" viewBox="0 0 74 74" fill="none" xmlns="http://www.w3.org/2000/svg">
<path fill-rule="evenodd" clip-rule="evenodd" d="M59.5185 16.4348C59.5185 13.9871 57.5314 12 55.0835 12H32.6201C30.1724 12 28.1853 13.9871 28.1853 16.4348V38.8982C28.1853 41.3461 30.1724 43.3332 32.6201 43.3332H55.0835C57.5314 43.3332 59.5185 41.3461 59.5185 38.8982V16.4348Z" stroke="#A8A8A8" stroke-width="6" stroke-miterlimit="1.5" stroke-linecap="round" stroke-linejoin="round"/>
<path d="M21.4474 27.6667H19.4348C16.9871 27.6667 15 29.6539 15 32.1016V54.5649C15 57.0129 16.9871 59 19.4348 59H41.8982C44.3461 59 46.3332 57.0129 46.3332 54.5649V51.2792" stroke="#A8A8A8" stroke-width="6" stroke-miterlimit="1.5" stroke-linecap="round" stroke-linejoin="round"/>
<rect x="1" y="1" width="72" height="72" rx="11" stroke="#A8A8A8" stroke-width="2"/>
</svg>
