<svg width="74" height="74" viewBox="0 0 74 74" fill="none" xmlns="http://www.w3.org/2000/svg">
<rect x="1" y="1" width="72" height="72" rx="11" stroke="#A8A8A8" stroke-width="2"/>
<path fill-rule="evenodd" clip-rule="evenodd" d="M25.7098 31.0115C27.1747 25.7605 31.8033 22 37.1684 22C39.8581 22 42.3429 22.934 44.3479 24.5245C45.229 25.2235 46.0173 26.0494 46.687 26.978C47.0915 27.5388 47.4525 28.1367 47.7644 28.7662C48.2548 29.7559 49.4547 30.1607 50.4444 29.6703C51.4341 29.1799 51.8389 27.98 51.3485 26.9903C50.9389 26.1636 50.4642 25.3771 49.9313 24.6381C49.049 23.4149 48.0064 22.321 46.8338 21.3908C44.1593 19.2691 40.8076 18 37.1684 18C29.769 18 23.6388 23.2009 21.7953 30.1756L19.4448 27.7199C18.6811 26.9219 17.415 26.8942 16.6171 27.658C15.8191 28.4218 15.7914 29.6878 16.5552 30.4858L21.7829 35.9474C22.3984 36.5905 23.3648 36.7494 24.1538 36.3372L31.1241 32.6961C32.1031 32.1847 32.4822 30.9764 31.9708 29.9974C31.4593 29.0183 30.2511 28.6393 29.272 29.1507L25.7098 31.0115ZM49.1289 42.9723C47.664 48.2233 43.0354 51.9839 37.6703 51.9839C34.9806 51.9839 32.4958 51.0499 30.4908 49.4593C29.6097 48.7604 28.8214 47.9345 28.1517 47.0059C27.7472 46.4451 27.3862 45.8472 27.0743 45.2177C26.5839 44.2279 25.384 43.8232 24.3943 44.3136C23.4046 44.804 22.9998 46.0039 23.4902 46.9936C23.8998 47.8202 24.3745 48.6067 24.9074 49.3457C25.7896 50.5689 26.8323 51.6629 28.0049 52.5931C30.6794 54.7147 34.031 55.9839 37.6703 55.9839C45.0697 55.9839 51.1999 50.783 53.0434 43.8083L55.3939 46.264C56.1576 47.0619 57.4237 47.0896 58.2216 46.3259C59.0196 45.5621 59.0473 44.2961 58.2835 43.4981L53.0558 38.0364C52.4403 37.3934 51.4739 37.2345 50.6849 37.6466L43.7146 41.2878C42.7356 41.7992 42.3565 43.0075 42.8679 43.9865C43.3793 44.9655 44.5876 45.3446 45.5666 44.8332L49.1289 42.9723Z" fill="#A8A8A8"/>
</svg>
