<svg width="65" height="45" viewBox="0 0 65 45" fill="none" xmlns="http://www.w3.org/2000/svg">
<path d="M12 43H2V2H12" stroke="#A8A8A8" stroke-width="4"/>
<path d="M53 2H63V43H53" stroke="#A8A8A8" stroke-width="4"/>
<path d="M32.5 43C43.8218 43 53 33.8218 53 22.5C53 11.1782 43.8218 2 32.5 2C21.1782 2 12 11.1782 12 22.5C12 33.8218 21.1782 43 32.5 43Z" stroke="#A8A8A8" stroke-width="4"/>
<path d="M29 23L34 22" stroke="#A8A8A8" stroke-width="4"/>
<path d="M34.179 21.9819C34.8157 21.8265 35.416 21.5454 35.9456 21.1546C36.4753 20.7638 36.9239 20.271 37.2659 19.7042C37.6079 19.1374 37.8366 18.5079 37.9388 17.8514C38.0411 17.1949 38.015 16.5244 37.8619 15.8782C37.7089 15.232 37.4319 14.6227 37.0469 14.0851C36.6619 13.5475 36.1763 13.0922 35.6179 12.7451C35.0595 12.398 34.4391 12.1659 33.7924 12.0621C33.1456 11.9583 32.485 11.9848 31.8483 12.1402L27 13.3166L31.6489 33L36.4972 31.8235" stroke="#A8A8A8" stroke-width="4"/>
<path d="M34 22.1235C35.2621 21.8309 36.5851 22.0629 37.6827 22.7691C38.7803 23.4753 39.5643 24.5991 39.8651 25.8972C40.1659 27.1953 39.9592 28.5634 39.2899 29.7055C38.6205 30.8476 37.5423 31.6719 36.2884 32" stroke="#A8A8A8" stroke-width="4"/>
</svg>
