<svg width="42" height="42" viewBox="0 0 42 42" fill="none" xmlns="http://www.w3.org/2000/svg">
<path d="M21 26.7C24.148 26.7 26.7 24.148 26.7 21C26.7 17.852 24.148 15.3 21 15.3C17.852 15.3 15.3 17.852 15.3 21C15.3 24.148 17.852 26.7 21 26.7Z" stroke="#A8A8A8" stroke-width="4" stroke-linecap="round" stroke-linejoin="round"/>
<path d="M33.7818 26.1818C33.5519 26.7028 33.4833 27.2807 33.5849 27.841C33.6865 28.4013 33.9536 28.9184 34.3518 29.3255L34.4555 29.4291C34.7766 29.7499 35.0315 30.1309 35.2053 30.5503C35.3791 30.9697 35.4686 31.4192 35.4686 31.8732C35.4686 32.3272 35.3791 32.7767 35.2053 33.1961C35.0315 33.6154 34.7766 33.9964 34.4555 34.3173C34.1346 34.6385 33.7536 34.8933 33.3342 35.0671C32.9149 35.241 32.4653 35.3304 32.0114 35.3304C31.5574 35.3304 31.1079 35.241 30.6885 35.0671C30.2691 34.8933 29.8881 34.6385 29.5673 34.3173L29.4636 34.2136C29.0566 33.8154 28.5395 33.5483 27.9792 33.4467C27.4189 33.3451 26.841 33.4137 26.32 33.6436C25.8091 33.8626 25.3734 34.2261 25.0665 34.6896C24.7596 35.153 24.5949 35.696 24.5927 36.2518V36.5455C24.5927 37.4617 24.2288 38.3403 23.5809 38.9882C22.9331 39.636 22.0544 40 21.1382 40C20.222 40 19.3433 39.636 18.6954 38.9882C18.0476 38.3403 17.6836 37.4617 17.6836 36.5455V36.39C17.6703 35.8183 17.4852 35.2638 17.1525 34.7987C16.8198 34.3335 16.3549 33.9792 15.8182 33.7818C15.2972 33.5519 14.7193 33.4833 14.159 33.5849C13.5987 33.6865 13.0816 33.9536 12.6745 34.3518L12.5709 34.4555C12.2501 34.7766 11.8691 35.0315 11.4497 35.2053C11.0303 35.3791 10.5808 35.4686 10.1268 35.4686C9.67284 35.4686 9.22331 35.3791 8.80393 35.2053C8.38456 35.0315 8.00356 34.7766 7.68273 34.4555C7.36154 34.1346 7.10673 33.7536 6.93288 33.3342C6.75904 32.9149 6.66956 32.4653 6.66956 32.0114C6.66956 31.5574 6.75904 31.1079 6.93288 30.6885C7.10673 30.2691 7.36154 29.8881 7.68273 29.5673L7.78636 29.4636C8.18456 29.0566 8.45168 28.5395 8.55328 27.9792C8.65488 27.4189 8.58629 26.841 8.35636 26.32C8.13741 25.8091 7.77385 25.3734 7.31044 25.0665C6.84703 24.7596 6.304 24.5949 5.74818 24.5927H5.45455C4.53834 24.5927 3.65967 24.2288 3.01181 23.5809C2.36396 22.9331 2 22.0544 2 21.1382C2 20.222 2.36396 19.3433 3.01181 18.6954C3.65967 18.0476 4.53834 17.6836 5.45455 17.6836H5.61C6.18172 17.6703 6.73619 17.4852 7.20133 17.1525C7.66648 16.8198 8.02078 16.3549 8.21818 15.8182C8.44811 15.2972 8.51669 14.7193 8.4151 14.159C8.3135 13.5987 8.04638 13.0816 7.64818 12.6745L7.54455 12.5709C7.22335 12.2501 6.96855 11.8691 6.7947 11.4497C6.62086 11.0303 6.53137 10.5808 6.53137 10.1268C6.53137 9.67284 6.62086 9.22331 6.7947 8.80393C6.96855 8.38456 7.22335 8.00356 7.54455 7.68273C7.86538 7.36154 8.24638 7.10673 8.66575 6.93288C9.08513 6.75904 9.53466 6.66956 9.98864 6.66956C10.4426 6.66956 10.8921 6.75904 11.3115 6.93288C11.7309 7.10673 12.1119 7.36154 12.4327 7.68273L12.5364 7.78636C12.9434 8.18456 13.4605 8.45168 14.0208 8.55328C14.5811 8.65488 15.159 8.58629 15.68 8.35636H15.8182C16.3291 8.13741 16.7648 7.77385 17.0717 7.31044C17.3785 6.84703 17.5432 6.304 17.5455 5.74818V5.45455C17.5455 4.53834 17.9094 3.65967 18.5573 3.01181C19.2051 2.36396 20.0838 2 21 2C21.9162 2 22.7949 2.36396 23.4427 3.01181C24.0906 3.65967 24.4545 4.53834 24.4545 5.45455V5.61C24.4568 6.16581 24.6215 6.70885 24.9284 7.17226C25.2352 7.63567 25.6709 7.99923 26.1818 8.21818C26.7028 8.44811 27.2807 8.51669 27.841 8.4151C28.4013 8.3135 28.9184 8.04638 29.3255 7.64818L29.4291 7.54455C29.7499 7.22335 30.1309 6.96855 30.5503 6.7947C30.9697 6.62086 31.4192 6.53137 31.8732 6.53137C32.3272 6.53137 32.7767 6.62086 33.1961 6.7947C33.6154 6.96855 33.9964 7.22335 34.3173 7.54455C34.6385 7.86538 34.8933 8.24638 35.0671 8.66575C35.241 9.08513 35.3304 9.53466 35.3304 9.98864C35.3304 10.4426 35.241 10.8921 35.0671 11.3115C34.8933 11.7309 34.6385 12.1119 34.3173 12.4327L34.2136 12.5364C33.8154 12.9434 33.5483 13.4605 33.4467 14.0208C33.3451 14.5811 33.4137 15.159 33.6436 15.68V15.8182C33.8626 16.3291 34.2261 16.7648 34.6896 17.0717C35.153 17.3785 35.696 17.5432 36.2518 17.5455H36.5455C37.4617 17.5455 38.3403 17.9094 38.9882 18.5573C39.636 19.2051 40 20.0838 40 21C40 21.9162 39.636 22.7949 38.9882 23.4427C38.3403 24.0906 37.4617 24.4545 36.5455 24.4545H36.39C35.8342 24.4568 35.2912 24.6215 34.8277 24.9284C34.3643 25.2352 34.0008 25.6709 33.7818 26.1818Z" stroke="#A8A8A8" stroke-width="4" stroke-linecap="round" stroke-linejoin="round"/>
</svg>
